<?xml version="1.0" standalone="no"?>
<!DOCTYPE svg PUBLIC "-//W3C//DTD SVG 20010904//EN"
 "http://www.w3.org/TR/2001/REC-SVG-20010904/DTD/svg10.dtd">
<svg version="1.0" xmlns="http://www.w3.org/2000/svg"
 width="512.000000pt" height="512.000000pt" viewBox="0 0 512.000000 512.000000"
 preserveAspectRatio="xMidYMid meet">

<g transform="translate(0.000000,512.000000) scale(0.100000,-0.100000)"
fill="#000000" stroke="none">
<path d="M360 2775 l0 -2345 210 0 210 0 2 -215 3 -215 107 71 106 71 106 -71
106 -71 0 215 0 215 1775 0 1775 0 0 2345 0 2345 -2200 0 -2200 0 0 -2345z
m1946 750 c107 -52 178 -168 178 -291 1 -177 -140 -316 -320 -316 -128 0 -228
63 -286 180 -28 57 -33 76 -32 142 0 88 22 145 79 209 99 109 251 139 381 76z
m-653 16 c40 -16 99 -73 118 -116 22 -48 24 -130 5 -176 -37 -89 -97 -127
-216 -136 l-80 -6 0 -93 0 -94 -85 0 -85 0 0 315 0 315 159 0 c88 0 171 -4
184 -9z m1305 -10 c128 -66 161 -236 66 -341 l-35 -39 62 -108 c34 -59 64
-111 66 -115 2 -5 -40 -8 -94 -8 l-98 0 -53 95 c-52 91 -55 95 -88 95 l-34 0
0 -95 0 -95 -90 0 -90 0 0 315 0 315 175 0 c153 0 181 -2 213 -19z m722 -56
l0 -75 -95 0 -95 0 0 -240 0 -240 -85 0 -85 0 0 240 0 240 -90 0 -90 0 0 75 0
75 270 0 270 0 0 -75z m-1940 -780 l0 -75 -130 0 -130 0 0 -55 0 -55 105 0
105 0 0 -70 0 -70 -105 0 -105 0 0 -115 0 -115 -85 0 -85 0 0 315 0 315 215 0
215 0 0 -75z m508 46 c56 -28 115 -90 144 -149 17 -34 24 -69 26 -130 4 -77 2
-88 -27 -147 -35 -70 -86 -121 -160 -156 -70 -35 -197 -33 -266 3 -225 118
-247 417 -41 556 66 44 97 52 196 48 64 -2 96 -8 128 -25z m442 -211 l0 -240
140 0 140 0 0 -75 0 -75 -230 0 -230 0 0 315 0 315 90 0 90 0 0 -240z m530
-75 l0 -315 -85 0 -85 0 0 315 0 315 85 0 85 0 0 -315z m559 286 c147 -76 216
-266 149 -413 -35 -75 -88 -132 -156 -165 -77 -38 -191 -39 -269 -4 -62 28
-136 103 -166 169 -26 59 -29 188 -4 242 39 88 108 154 194 186 58 22 196 14
252 -15z"/>
<path d="M2079 3373 c-60 -51 -76 -140 -39 -220 34 -77 127 -106 197 -63 87
52 96 210 16 280 -28 25 -42 30 -88 30 -44 0 -59 -5 -86 -27z"/>
<path d="M1480 3335 l0 -66 62 3 c60 3 63 4 71 34 7 22 5 40 -4 60 -13 26 -20
29 -72 32 l-57 3 0 -66z"/>
<path d="M2750 3335 l0 -65 65 0 c70 0 85 11 85 65 0 54 -15 65 -85 65 l-65 0
0 -65z"/>
<path d="M2029 2597 c-67 -45 -89 -149 -49 -232 25 -53 64 -75 130 -75 46 0
56 4 85 33 81 81 64 237 -29 281 -48 22 -97 20 -137 -7z"/>
<path d="M3560 2598 c-68 -47 -91 -149 -50 -233 25 -53 64 -75 130 -75 45 0
56 4 85 33 60 60 70 160 24 235 -36 61 -129 80 -189 40z"/>
</g>
</svg>
